<?xml version="1.0" encoding="UTF-8"?>
<svg xmlns="http://www.w3.org/2000/svg" viewBox="0 0 64 64" role="img" aria-label="Smart Condominium logo">
  <defs>
    <linearGradient id="g" x1="0%" y1="0%" x2="100%" y2="100%">
      <stop offset="0%" stop-color="#60a5fa"/>
      <stop offset="100%" stop-color="#2563eb"/>
    </linearGradient>
  </defs>
  <!-- Background shield -->
  <path d="M8 18c0-4.418 3.582-8 8-8h32c4.418 0 8 3.582 8 8v20c0 4.418-3.582 8-8 8H32l-8 8-8-8c-4.418 0-8-3.582-8-8V18z" fill="url(#g)"/>

  <!-- Building body -->
  <rect x="18" y="20" width="20" height="24" rx="2" ry="2" fill="#ffffff" opacity="0.95"/>
  <!-- Windows -->
  <g fill="#2563eb">
    <rect x="21" y="23" width="4" height="4" rx="1"/>
    <rect x="27" y="23" width="4" height="4" rx="1"/>
    <rect x="21" y="29" width="4" height="4" rx="1"/>
    <rect x="27" y="29" width="4" height="4" rx="1"/>
    <rect x="21" y="35" width="10" height="7" rx="1"/>
  </g>

  <!-- Antenna / smart waves -->
  <g fill="none" stroke="#0ea5e9" stroke-width="2" stroke-linecap="round">
    <path d="M44 26c2.8-2.8 7.2-2.8 10 0"/>
    <path d="M41.5 23.5c4.2-4.2 11.3-4.2 15.6 0" opacity="0.7"/>
    <path d="M39 21c5.6-5.6 14.8-5.6 20.4 0" opacity="0.4"/>
  </g>

  <!-- Door knob -->
  <circle cx="30" cy="38" r="1" fill="#93c5fd"/>
</svg>
